<svg xmlns="http://www.w3.org/2000/svg" width="1440" height="549" fill="none"><path fill="#fff" fill-opacity=".04" d="M-14 509.201v-88.57L246.548 8.407h73.757v126.099h-44.974L99.933 412.825v4.804h363.688v91.572H-14Zm292.929 114.09V482.18l1.199-39.632V8.407h104.939V623.29H278.929ZM718.838 635c-49.371 0-91.746-12.51-127.126-37.53-35.179-25.219-62.263-61.548-81.252-108.985-18.789-47.638-28.184-104.983-28.184-172.036.2-67.053 9.695-124.098 28.484-171.135 18.989-47.237 46.073-83.265 81.252-108.085C627.392 12.41 669.667 0 718.838 0c49.172 0 91.447 12.41 126.826 37.23 35.379 24.819 62.464 60.847 81.253 108.084 18.989 47.238 28.483 104.283 28.483 171.135 0 67.253-9.494 124.698-28.483 172.336-18.789 47.437-45.874 83.666-81.253 108.685C810.485 622.49 768.209 635 718.838 635Zm0-93.974c38.378 0 68.66-18.915 90.847-56.745 22.387-38.03 33.581-93.974 33.581-167.832 0-48.838-5.097-89.871-15.292-123.097-10.194-33.226-24.585-58.246-43.174-75.059-18.589-17.013-40.577-25.52-65.962-25.52-38.177 0-68.36 19.015-90.547 57.045-22.187 37.83-33.38 93.373-33.58 166.631-.2 49.039 4.697 90.271 14.691 123.698 10.194 33.426 24.586 58.646 43.175 75.659 18.589 16.813 40.676 25.22 66.261 25.22Zm257.541-31.825v-88.57L1236.93 8.407h73.75v126.099h-44.97l-175.4 278.319v4.804H1454v91.572H976.379Zm292.931 114.09V482.18l1.2-39.632V8.407h104.94V623.29h-106.14Z"/></svg>