<svg xmlns="http://www.w3.org/2000/svg" width="130" height="23" fill="none"><path fill="#9C9EAC" d="M104.063 22.694c-5.652 0-8.145-2.362-8.145-5.856h4.953c.2 1.663.998 2.562 3.258 2.562 2.128 0 2.993-.832 2.993-1.897 0-.965-.798-1.497-2.161-1.697l-2.727-.366c-4.322-.632-5.851-2.063-5.851-5.058 0-3.161 2.327-5.524 7.68-5.524s7.68 2.363 7.68 5.59h-4.954c-.166-1.264-.665-2.295-2.793-2.295-1.828 0-2.526.732-2.526 1.797 0 .931.498 1.364 1.629 1.53l2.693.366c4.089.6 6.416 1.864 6.416 5.325 0 3.16-2.493 5.523-8.145 5.523Zm-11.538-.133c-4.189 0-5.519-1.33-5.519-5.424V8.752h-2.593v-3.56h2.593V0h5.054v5.191h3.524v3.56H92.06v8.586c0 1.198.532 1.63 1.729 1.63h1.795v3.395c-.765.066-2.26.2-3.059.2Z"/><path fill="#9C9EAC" d="M76.58 22.694c-5.686 0-8.91-3.56-8.91-8.918 0-5.357 3.224-8.918 8.91-8.918 5.718 0 8.378 3.494 8.378 7.055H80.17c-.266-1.897-1.33-3.228-3.59-3.228-2.427 0-3.824 1.63-3.824 5.091 0 3.461 1.397 5.092 3.823 5.092 1.929 0 3.292-.965 3.591-3.361h4.788c0 3.893-2.86 7.187-8.379 7.187Zm-20.097 0c-4.09 0-6.25-2.03-6.25-5.19 0-2.663 1.529-4.826 5.917-5.192l3.657-.3c1.43-.132 1.829-.565 1.829-1.297 0-1.464-.898-2.296-2.627-2.296-1.695 0-2.626.765-2.792 2.296h-5.054c0-3.56 2.261-5.857 7.78-5.857s7.78 2.296 7.78 5.857v7.254c0 2.33.2 3.827.532 4.392h-4.622c-.465-.598-.731-1.264-.731-2.395-.964 1.797-2.56 2.728-5.42 2.728Zm1.496-3.394c2.327 0 3.657-1.764 3.657-3.86v-.965c-.233.266-.898.433-1.829.533l-1.861.133c-1.895.166-2.627.931-2.627 1.996 0 1.298.798 2.163 2.66 2.163Zm-13.035 3.061h-5.087V5.191h4.82v3.694c.865-2.995 2.361-3.927 4.622-3.927.465 0 1.263.1 1.596.233v4.426l-1.796-.034c-2.526 0-4.155 1.797-4.155 4.925v7.854Zm-9.146.2c-4.189 0-5.519-1.33-5.519-5.424V8.752h-2.593v-3.56h2.593V0h5.054v5.191h3.524v3.56h-3.524v8.586c0 1.198.532 1.63 1.729 1.63h1.795v3.395c-.765.066-2.26.2-3.059.2Z"/><path fill="#9C9EAC" d="M24.758 22.561c-4.189 0-5.519-1.33-5.519-5.424V8.752h-2.593v-3.56h2.593V0h5.054v5.191h3.524v3.56h-3.524v8.586c0 1.198.532 1.63 1.729 1.63h1.795v3.395c-.765.066-2.26.2-3.059.2Zm-18.508.133c-4.089 0-6.25-2.03-6.25-5.19 0-2.663 1.53-4.826 5.918-5.192l3.657-.3c1.43-.132 1.829-.565 1.829-1.297 0-1.464-.898-2.296-2.627-2.296-1.695 0-2.626.765-2.793 2.296H.931c0-3.56 2.26-5.857 7.78-5.857 5.519 0 7.78 2.296 7.78 5.857v7.254c0 2.33.199 3.827.531 4.392h-4.621c-.465-.598-.731-1.264-.731-2.395-.965 1.797-2.56 2.728-5.42 2.728ZM7.746 19.3c2.328 0 3.658-1.764 3.658-3.86v-.965c-.233.266-.898.433-1.829.533l-1.862.133c-1.895.166-2.626.931-2.626 1.996 0 1.298.798 2.163 2.66 2.163Z"/><path fill="#9C9EAC" fill-rule="evenodd" d="M123.292 21.594c2.852 0 5.164-2.24 5.164-5.003 0-2.764-2.312-5.004-5.164-5.004s-5.164 2.24-5.164 5.004c0 2.763 2.312 5.003 5.164 5.003Zm0 .872c3.349 0 6.065-2.63 6.065-5.875s-2.716-5.876-6.065-5.876-6.064 2.63-6.064 5.876c0 3.245 2.715 5.875 6.064 5.875Z" clip-rule="evenodd"/><path fill="#9C9EAC" d="M122.433 16.89v-.582h1.119c.223 0 .396-.055.518-.165a.605.605 0 0 0 .19-.472c0-.18-.062-.33-.184-.453-.122-.122-.295-.183-.518-.183h-1.125v-.613h1.157c.278 0 .522.055.733.166.21.106.373.253.486.44.118.184.177.394.177.631 0 .25-.059.466-.177.65a1.14 1.14 0 0 1-.486.428 1.664 1.664 0 0 1-.733.153h-1.157Zm-.499 1.819v-4.287h.726v4.287h-.726Zm2.427 0-1.549-1.862.676-.239 1.789 2.1h-.916Z"/></svg>