<svg xmlns="http://www.w3.org/2000/svg" width="78" height="24" fill="none"><path fill="#9C9EAC" d="M70.508 24c-2.95 0-4.806-1.296-5.734-3.49v3.158h-3.348V0h3.513v9.44c.962-2.127 2.818-3.257 5.57-3.257 4.607 0 7.491 3.29 7.491 8.908C78 20.71 75.116 24 70.508 24Zm-.795-2.692c2.818 0 4.773-1.895 4.773-6.217 0-4.288-1.955-6.216-4.773-6.216-2.85 0-4.773 1.928-4.773 6.216 0 4.322 1.922 6.217 4.773 6.217ZM50.982 24c-3.978 0-6.133-1.994-6.133-5.185 0-2.56 1.558-4.588 5.801-4.953l3.315-.266c2.022-.2 2.619-.665 2.619-1.762 0-1.961-1.127-3.125-3.613-3.125-2.32 0-3.58.998-3.746 3.125h-3.448c0-3.457 2.122-5.651 7.16-5.651 5.006 0 7.16 2.194 7.16 5.651v7.446c0 2.327.2 3.823.53 4.388H57.48c-.53-.665-.73-1.363-.73-2.959C55.822 22.903 53.932 24 50.982 24Zm.96-2.426c3.017 0 4.642-2.36 4.642-5.186v-1.463c-.365.466-1.293.732-2.619.831l-2.188.2c-2.453.2-3.414 1.23-3.414 2.626 0 1.762 1.06 2.992 3.58 2.992Zm-7.757 2.094h-3.514V0h3.514v23.668ZM31.545 24c-5.437 0-8.453-3.457-8.453-8.908 0-5.452 3.016-8.909 8.453-8.909 5.436 0 8.453 3.457 8.453 8.909 0 5.451-3.017 8.908-8.453 8.908Zm0-2.692c3.149 0 4.939-2.061 4.939-6.216 0-4.122-1.79-6.216-4.94-6.216-3.148 0-4.938 2.094-4.938 6.216 0 4.155 1.79 6.216 4.939 6.216Z"/><path fill="#9C9EAC" fill-rule="evenodd" d="M17.265 23.546H8.978v-5.047A17.15 17.15 0 0 1 0 21.021v-8.31c4.958 0 8.978-4.031 8.978-9.003V1.385h8.287v22.16Z" clip-rule="evenodd"/><path fill="#9C9EAC" fill-rule="evenodd" d="M0 2.77h4.834v5.54H0V2.77Z" clip-rule="evenodd"/></svg>