<svg xmlns="http://www.w3.org/2000/svg" width="62" height="23" fill="none"><path fill="#9C9EAC" d="M59.243 22.6c-1.313 0-2.063-.818-2.063-1.855s.75-1.854 2.063-1.854c1.313 0 2.031.817 2.031 1.854 0 1.037-.718 1.855-2.031 1.855Z"/><path fill="#9C9EAC" d="M57.601 22.38h-3.688l-4.125-5.815-4.157 5.815h-3.656l5.907-8.424-5.595-7.795h3.657l3.844 5.406 3.813-5.406h3.688l-5.595 7.795 5.907 8.424Z"/><path fill="#9C9EAC" d="M34.142 22.694c-3.75 0-5.782-1.886-5.782-4.903 0-2.42 1.47-4.338 5.47-4.684l3.125-.251c1.907-.189 2.469-.629 2.469-1.666 0-1.854-1.063-2.955-3.407-2.955-2.187 0-3.375.943-3.531 2.955h-3.25c0-3.269 2-5.343 6.75-5.343 4.72 0 6.75 2.074 6.75 5.343v7.04c0 2.201.188 3.616.501 4.15h-2.97c-.5-.629-.687-1.289-.687-2.797-.875 2.074-2.656 3.111-5.438 3.111Zm.907-2.294c2.844 0 4.375-2.232 4.375-4.904v-1.383c-.344.44-1.219.692-2.469.786l-2.063.189c-2.312.188-3.219 1.163-3.219 2.483 0 1.666 1 2.829 3.376 2.829Zm-7.315 1.98H24.42V0h3.313v22.38Zm-11.521.314c-5.126 0-7.97-3.269-7.97-8.424 0-4.997 2.688-8.423 7.782-8.423 5.095 0 7.782 3.489 7.782 8.14 0 .315-.03.598-.062.912H11.556c.094 3.835 1.907 5.5 4.657 5.5 2.281 0 3.719-1.194 4.219-3.048h3.032c-.72 3.3-3.063 5.343-7.251 5.343Zm-.188-14.553c-2.5 0-4.125 1.509-4.469 4.558h8.938c-.343-3.05-1.968-4.558-4.469-4.558Z"/><path fill="#9C9EAC" d="M3.313 22.38H0V11.248L3.157 6.16V9.9C4 7.041 5.438 5.972 7.782 5.972c.438 0 1.063.094 1.469.189v2.923L7.657 9.02c-2.625 0-4.344 2.043-4.344 5.658v7.7Z"/></svg>