<svg xmlns="http://www.w3.org/2000/svg" width="57" height="24" fill="none"><path fill="#9C9EAC" d="M48.814 21.76c-4.916 0-7.666-3.1-7.666-7.913 0-4.783 2.75-7.912 7.666-7.912 4.946 0 7.696 3.13 7.696 7.912 0 4.812-2.75 7.912-7.696 7.912Zm0-2.894c2.517 0 3.922-1.653 3.922-5.019s-1.405-5.02-3.922-5.02c-2.487 0-3.891 1.654-3.891 5.02 0 3.366 1.404 5.02 3.891 5.02Zm-8.651 2.598h-3.775V6.23h3.775v15.234ZM38.29 3.956c-1.404 0-2.194-.856-2.194-1.978C36.096.856 36.886 0 38.29 0c1.405 0 2.166.856 2.166 1.978 0 1.122-.761 1.978-2.166 1.978Zm-3.471 17.508h-3.775V.443h3.775v21.021Zm-12.126.296c-4.916 0-7.667-3.1-7.667-7.913 0-4.694 2.634-7.912 7.491-7.912 4.887 0 7.52 3.247 7.52 7.735 0 .325-.029.62-.058.974H18.8c.117 3.1 1.58 4.517 3.892 4.517 1.873 0 3.102-.945 3.54-2.51h3.483c-.644 3.13-2.956 5.108-7.023 5.108Zm-.176-13.227c-2.077 0-3.394 1.21-3.716 3.631h7.462c-.322-2.42-1.668-3.631-3.746-3.631Z"/><path stroke="#9C9EAC" stroke-width="3" d="m10.578 4.242-8.535 9.226 8.535 9.226"/></svg>