<svg xmlns="http://www.w3.org/2000/svg" width="99" height="23" fill="none"><path fill="#9C9EAC" d="M98.72 19.947H95V8.632c0-2.74-.983-4.146-3.546-4.146-2.703 0-4.458 2.038-4.458 5.341v10.12h-3.72V1.815h3.545v3.163c.983-2.109 2.738-3.514 5.756-3.514 4.142 0 6.143 2.108 6.143 6.5v11.983Zm-25.81.352c-5.757 0-8.951-3.655-8.951-9.418s3.194-9.417 8.95-9.417c5.757 0 8.951 3.654 8.951 9.417S78.666 20.3 72.91 20.3Zm0-2.847c3.334 0 5.23-2.178 5.23-6.57 0-4.358-1.896-6.572-5.23-6.572-3.335 0-5.23 2.214-5.23 6.571 0 4.393 1.895 6.571 5.23 6.571Z"/><path fill="#9C9EAC" d="M65.38 19.947h-4.14l-4.634-6.5-4.668 6.5H47.83l6.634-9.417-6.283-8.715h4.107l4.317 6.044 4.283-6.044h4.142l-6.284 8.715 6.634 9.417Z"/><path fill="#9C9EAC" d="M40.719 20.299c-5.757 0-8.951-3.655-8.951-9.418 0-5.587 3.018-9.417 8.74-9.417s8.74 3.9 8.74 9.101c0 .351-.035.668-.07 1.019h-13.69c.106 4.287 2.142 6.15 5.23 6.15 2.563 0 4.178-1.336 4.74-3.41h3.404c-.807 3.69-3.44 5.975-8.143 5.975Zm-.211-16.27c-2.808 0-4.634 1.687-5.02 5.095h10.04c-.387-3.408-2.212-5.095-5.02-5.095ZM22.67 0l-5.85 5.125L0 0l16.82 22.694 5.85-5.124V0Z"/></svg>