<svg width="109" height="24" viewBox="0 0 109 24" fill="none" xmlns="http://www.w3.org/2000/svg">
<g opacity="0.6">
<path d="M0.288136 16.4996C0.134832 16.2422 0.240707 15.9087 0.514391 15.7869L7.88181 12.5078C8.02833 12.4426 8.19723 12.4516 8.33597 12.5321L12.5664 14.9856C12.7044 15.0656 12.7959 15.2067 12.8128 15.3653L13.6704 23.4426C13.7019 23.7396 13.4677 23.9978 13.1691 23.9954L8.5422 23.9572C8.24066 23.9547 8.00992 23.6878 8.05099 23.3891L8.77695 18.1078C8.80467 17.9062 8.70742 17.7079 8.53104 17.6063L8.12409 17.3721C7.94754 17.2705 7.727 17.2861 7.56657 17.4116L3.41952 20.6561C3.18228 20.8417 2.836 20.777 2.68186 20.5182L0.288136 16.4996Z" fill="white"/>
<path d="M13.5094 14.8823L20.02 19.6714C20.2626 19.8499 20.6067 19.775 20.7532 19.5119L23.0327 15.417C23.1789 15.1544 23.062 14.823 22.7834 14.7103L17.8644 12.7203C17.6755 12.6439 17.5519 12.4605 17.5519 12.2568V11.7878C17.5519 11.5853 17.674 11.4029 17.8611 11.3256L22.7865 9.29231C23.0638 9.17784 23.1785 8.8467 23.0316 8.58519L20.754 4.53214C20.6069 4.27032 20.2638 4.19636 20.0219 4.37432L13.5094 9.16479C13.3813 9.25902 13.3057 9.40855 13.3057 9.56756V14.4795C13.3057 14.6386 13.3813 14.7881 13.5094 14.8823Z" fill="white"/>
<path d="M12.8128 8.6347L13.6699 0.562056C13.7016 0.263399 13.4647 0.00437329 13.1645 0.00933197L8.53743 0.0857367C8.23758 0.0906881 8.0095 0.356657 8.05034 0.653758L8.77695 5.93975C8.80467 6.14136 8.70742 6.33966 8.53104 6.44118L8.12261 6.67627C7.94681 6.77746 7.72729 6.76241 7.56694 6.63816L3.37313 3.38864C3.13532 3.20438 2.78982 3.27032 2.6366 3.52922L0.285956 7.50097C0.133666 7.75828 0.239764 8.09085 0.512932 8.21243L7.88181 11.4922C8.02833 11.5574 8.19723 11.5484 8.33597 11.4679L12.5664 9.01444C12.7044 8.93441 12.7959 8.79333 12.8128 8.6347Z" fill="white"/>
<path d="M32.8545 18.3711V6.85107H38.3265C39.1798 6.85107 39.9105 7.0004 40.5185 7.29907C41.1372 7.59773 41.6118 8.01373 41.9425 8.54707C42.2838 9.0804 42.4545 9.7044 42.4545 10.4191C42.4545 11.1337 42.2838 11.7631 41.9425 12.3071C41.6012 12.8511 41.1212 13.2777 40.5025 13.5871C39.8945 13.8857 39.1692 14.0351 38.3265 14.0351H34.8065V12.1471H38.1985C38.7638 12.1471 39.2012 11.9924 39.5105 11.6831C39.8305 11.3631 39.9905 10.9471 39.9905 10.4351C39.9905 9.92307 39.8305 9.5124 39.5105 9.20307C39.2012 8.89373 38.7638 8.73907 38.1985 8.73907H35.3185V18.3711H32.8545Z" fill="white"/>
<path d="M41.5404 18.3711L45.6684 6.85107H47.7804L43.9884 18.3711H41.5404ZM49.9884 18.3711L46.2124 6.85107H48.4204L52.5484 18.3711H49.9884ZM43.7164 13.9071H50.1804V15.8271H43.7164V13.9071Z" fill="white"/>
<path d="M55.0347 18.3711V13.7151L50.7467 6.85107H53.7067L57.0987 12.9471H55.7067L59.0827 6.85107H61.7867L57.4987 13.7151V18.3711H55.0347Z" fill="white"/>
<path d="M62.4414 18.3711V6.85107H66.2814L69.4814 17.9551H68.0894L71.2894 6.85107H75.1454V18.3711H72.7134V7.53907H73.1294L70.0094 18.3711H67.4654L64.3774 7.63507H64.7774V18.3711H62.4414Z" fill="white"/>
<path d="M76.0022 18.3711L80.1302 6.85107H82.2422L78.4502 18.3711H76.0022ZM84.4502 18.3711L80.6742 6.85107H82.8822L87.0102 18.3711H84.4502ZM78.1782 13.9071H84.6422V15.8271H78.1782V13.9071Z" fill="white"/>
<path d="M87.6124 18.3711V6.85107H92.7644C93.5964 6.85107 94.3217 6.99507 94.9404 7.28307C95.559 7.5604 96.039 7.95507 96.3804 8.46707C96.7217 8.97907 96.8924 9.5764 96.8924 10.2591C96.8924 10.9311 96.7217 11.5231 96.3804 12.0351C96.039 12.5364 95.559 12.9311 94.9404 13.2191C94.3217 13.4964 93.5964 13.6351 92.7644 13.6351H89.5644V11.8271H92.7004C93.287 11.8271 93.735 11.6937 94.0444 11.4271C94.3644 11.1497 94.5244 10.7657 94.5244 10.2751C94.5244 9.77373 94.3697 9.39507 94.0604 9.13907C93.751 8.8724 93.2977 8.73907 92.7004 8.73907H90.0764V18.3711H87.6124ZM94.1084 18.3711L89.4844 12.3871H92.0924L97.4364 18.3711H94.1084Z" fill="white"/>
<path d="M98.0439 18.3711V6.85107H100.508V18.3711H98.0439ZM99.7239 12.3871L104.908 6.85107H108.188L102.716 12.3871H99.7239ZM105.164 18.3711L99.6919 12.3871H102.716L108.508 18.3711H105.164Z" fill="white"/>
</g>
</svg>
